<svg xmlns="http://www.w3.org/2000/svg" width="11.65" height="15.4" viewBox="0 0 11.65 15.4">
  <g id="lock-icon" transform="translate(-63.8 0.2)">
    <path id="Path_1321" data-name="Path 1321" d="M213.844,279.588l-.2,1.773a.313.313,0,0,0,.311.347h1.25a.313.313,0,0,0,.311-.347l-.2-1.773a1.236,1.236,0,0,0,.511-1.005,1.25,1.25,0,0,0-2.5,0A1.236,1.236,0,0,0,213.844,279.588Zm.739-1.63a.623.623,0,0,1,.27,1.185.313.313,0,0,0-.175.316l.181,1.624h-.552l.181-1.624a.313.313,0,0,0-.175-.316.623.623,0,0,1,.27-1.185Z" transform="translate(-144.958 -269.208)" fill="#92a1b1" stroke="#92a1b1" stroke-width="0.4"/>
    <path id="Path_1322" data-name="Path 1322" d="M74.937,5.625H74V4.375a4.375,4.375,0,0,0-8.75,0v1.25h-.937A.312.312,0,0,0,64,5.938V13.75A1.251,1.251,0,0,0,65.25,15H74a1.251,1.251,0,0,0,1.25-1.25V5.938A.312.312,0,0,0,74.937,5.625Zm-9.062-1.25a3.75,3.75,0,0,1,7.5,0v1.25H72.75V4.375a3.125,3.125,0,0,0-6.25,0v1.25h-.625Zm6.25,0v1.25h-5V4.375a2.5,2.5,0,0,1,5,0Zm2.5,9.375a.626.626,0,0,1-.625.625H65.25a.626.626,0,0,1-.625-.625V6.25h10Z" fill="#92a1b1" stroke="#92a1b1" stroke-width="0.4"/>
  </g>
</svg>
